<?xml version="1.0" encoding="utf-8"?>
<!-- Generator: Adobe Illustrator 20.1.0, SVG Export Plug-In . SVG Version: 6.00 Build 0)  -->
<svg version="1.1" id="Analysis" xmlns="http://www.w3.org/2000/svg" xmlns:xlink="http://www.w3.org/1999/xlink" x="0px" y="0px"
	 viewBox="0 0 192 192" style="enable-background:new 0 0 192 192;" xml:space="preserve">
<style type="text/css">
	.st0{fill:#424ECC;}
</style>
<g>
	<g>
		<path class="st0" d="M139.2,144.1c-0.3-0.4-0.8-0.5-1.2-0.2l-2.8,2.2l-0.8-0.9c-0.4-0.3-1-0.3-1.4,0c0,0,0,0,0,0
			c-0.4,0.3-0.4,0.9-0.1,1.2l1.6,1.6l0.1,0.1c0.3,0.3,0.8,0.4,1.1,0.1l3.4-2.9C139.6,145.2,139.6,144.6,139.2,144.1
			C139.3,144.2,139.3,144.1,139.2,144.1z M134.1,100.1h0.4c0.6,0,1,0.5,1,1v14.1c0,0.6,0.5,1,1,1l4.1,0c0.6,0,1-0.5,1-1v-14.1
			c0-0.6,0.5-1,1-1h0.4c0.3,0,0.6-0.1,0.8-0.4c0.4-0.6-0.1-1.1-0.4-1.5c-1-1.1-3.6-4.5-4.1-5.1c0-0.1-0.1-0.1-0.1-0.1
			c-0.4-0.3-0.9-0.2-1.2,0.1c-0.5,0.6-3,3.8-4,5c-0.4,0.4-0.9,1-0.5,1.6C133.5,100,133.8,100.1,134.1,100.1z M88,110.3L71.9,110
			l8.5,14.6C85.1,121.4,88,116.1,88,110.3z M128.3,47.9h-6.4c-0.2,0-0.4,0.2-0.4,0.4v13.7c0,0,0,0,0,0c0,0.2,0.2,0.4,0.4,0.4h6.4
			c0,0,0,0,0.1,0c0.2,0,0.4-0.2,0.4-0.4V48.3c0,0,0,0,0-0.1C128.7,48.1,128.5,47.9,128.3,47.9z M141.1,138.3h-10
			c-1.6,0-2.9,1.3-2.9,2.9v10c0,1.6,1.3,2.9,2.9,2.9h10c1.6,0,2.9-1.3,2.9-2.9v-10C144,139.6,142.7,138.3,141.1,138.3z M142,151.1
			c0,0.5-0.4,0.9-0.9,0.9h-10c-0.5,0-0.9-0.4-0.9-0.9v-10c0-0.5,0.4-0.9,0.9-0.9h10c0.5,0,0.9,0.4,0.9,0.9V151.1z M71.8,110
			L71.8,110L71.8,110L71.8,110z M59.3,144.1c-0.3-0.4-0.8-0.5-1.2-0.2l-2.8,2.2l-0.8-0.9c-0.4-0.3-1-0.3-1.4,0c0,0,0,0,0,0
			c-0.4,0.3-0.4,0.9-0.1,1.2l1.6,1.6l0.1,0.1c0.3,0.3,0.8,0.4,1.1,0.1l3.4-2.9C59.7,145.2,59.7,144.6,59.3,144.1
			C59.4,144.2,59.4,144.1,59.3,144.1z M87.6,138.3h-10c-1.6,0-2.9,1.3-2.9,2.9v10c0,1.6,1.3,2.9,2.9,2.9h10c1.6,0,2.9-1.3,2.9-2.9
			v-10C90.5,139.6,89.2,138.3,87.6,138.3z M88.5,151.1c0,0.5-0.4,0.9-0.9,0.9h-10c-0.5,0-0.9-0.4-0.9-0.9v-10c0-0.5,0.4-0.9,0.9-0.9
			h10c0.5,0,0.9,0.4,0.9,0.9V151.1z M61.2,138.3h-10c-1.6,0-2.9,1.3-2.9,2.9v10c0,1.6,1.3,2.9,2.9,2.9h10c1.6,0,2.9-1.3,2.9-2.9v-10
			C64.1,139.6,62.8,138.3,61.2,138.3z M62.1,151.1c0,0.5-0.4,0.9-0.9,0.9h-10c-0.5,0-0.9-0.4-0.9-0.9v-10c0-0.5,0.4-0.9,0.9-0.9h10
			c0.5,0,0.9,0.4,0.9,0.9V151.1z M85.7,144.1c-0.3-0.4-0.8-0.5-1.2-0.2l-2.8,2.2l-0.8-0.9c-0.4-0.3-1-0.3-1.4,0c0,0,0,0,0,0
			c-0.4,0.3-0.4,0.9-0.1,1.2l1.6,1.6l0.1,0.1c0.3,0.3,0.8,0.4,1.1,0.1l3.4-2.9C86.1,145.2,86.1,144.6,85.7,144.1
			C85.8,144.2,85.8,144.1,85.7,144.1z M150.8,20H41.2c-5.1,0-9.2,4.1-9.2,9.2v133.5c0,5.1,4.1,9.2,9.2,9.2h109.5
			c5.1,0,9.2-4.1,9.2-9.2V29.2C160,24.1,155.9,20,150.8,20z M152,162.8c0,0.7-0.6,1.2-1.2,1.2H41.2c-0.7,0-1.2-0.6-1.2-1.2V77.5h112
			V162.8z M152,74H40V29.2c0-0.7,0.6-1.2,1.2-1.2h109.5c0.7,0,1.2,0.6,1.2,1.2V74z M84.6,39.5h-6.4c0,0,0,0-0.1,0
			c-0.2,0-0.4,0.2-0.4,0.4v22.3c0,0,0,0,0,0.1c0,0.2,0.2,0.4,0.4,0.3h6.4c0,0,0,0,0,0c0.2,0,0.4-0.2,0.4-0.4V39.9c0,0,0,0,0,0
			C85,39.6,84.9,39.5,84.6,39.5z M70.4,106.1l1.2,0.1l18.7,0.6h1.2l-0.1-1.2c-0.4-9.2-6.7-17.1-15.6-19.6c-1.5-0.4-3-0.7-4.5-0.8
			L70.2,85v1.3l0.2,18.8L70.4,106.1z M73.6,88.5c1.8,0.3,3.5,0.9,5.1,1.8c5.3,2.8,9.3,8.3,9.9,14.2l-15.8-0.6l0-0.1l-0.2-15.4
			C73,88.4,73.3,88.5,73.6,88.5z M99.2,47.9h-6.4c-0.2,0-0.4,0.2-0.4,0.4v13.7c0,0,0,0,0,0c0,0.2,0.2,0.4,0.4,0.4h6.4c0,0,0,0,0,0
			c0.2,0,0.4-0.2,0.4-0.4V48.3c0,0,0,0,0,0C99.6,48.1,99.4,47.9,99.2,47.9z M75.6,124.3l-9.2-16l-0.7-18.4
			C55.8,90.3,48,98.4,48,108.3c0,3.2,0.8,6.4,2.5,9.2C55.5,126.4,66.8,129.4,75.6,124.3z M70.1,42.5h-6.4c-0.2,0-0.5,0.2-0.4,0.4
			v19.2c0,0,0,0,0,0c0,0.2,0.2,0.4,0.4,0.4h6.4c0,0,0,0,0.1,0c0.2,0,0.4-0.2,0.4-0.4V42.9c0,0,0,0,0-0.1
			C70.5,42.7,70.3,42.5,70.1,42.5z M104,154h10c1.6,0,2.9-1.3,2.9-2.9v-10c0-1.6-1.3-2.9-2.9-2.9h-10c-1.6,0-2.9,1.3-2.9,2.9v10
			C101.2,152.7,102.4,154,104,154z M103.2,141.2c0-0.5,0.4-0.9,0.9-0.9h10c0.5,0,0.9,0.4,0.9,0.9v10c0,0.5-0.4,0.9-0.9,0.9h-10
			c-0.5,0-0.9-0.4-0.9-0.9V141.2z M125.3,116.2h4.2c0.6,0,1-0.4,1-1v-11.7c0-0.6-0.4-1-1-1h-4.2c-0.6,0-1,0.4-1,1v11.7
			C124.3,115.8,124.8,116.2,125.3,116.2z M113.7,39.5h-6.4c0,0,0,0,0,0c-0.2,0-0.4,0.2-0.4,0.4v22.3c0,0,0,0,0,0
			c0,0.2,0.2,0.4,0.4,0.4h6.4c0,0,0,0,0.1,0c0.2,0,0.4-0.2,0.4-0.4V39.9c0,0,0,0,0-0.1C114.1,39.6,113.9,39.4,113.7,39.5z
			 M114.1,116.2h4.2c0.6,0,1-0.4,1-1V108c0-0.6-0.4-1-1-1h-4.2c-0.6,0-1,0.4-1,1v7.3C113.1,115.8,113.5,116.2,114.1,116.2z
			 M102.8,116.2h4.2c0.6,0,1-0.4,1-1v-3.7c0-0.6-0.4-1-1-1h-4.2c-0.6,0-1,0.4-1,1v3.7C101.8,115.8,102.3,116.2,102.8,116.2z
			 M102.4,126.3H143c0.6,0,1-0.4,1-1v-4.2c0-0.6-0.4-1-1-1h-40.6c-0.6,0-1,0.4-1,1v4.2C101.4,125.9,101.9,126.3,102.4,126.3z
			 M107.4,148.2L107.4,148.2c0.4,0.4,0.9,0.5,1.2,0.2l3.4-2.9c0.4-0.4,0.4-1,0.1-1.4c0,0,0,0,0-0.1c-0.3-0.4-0.8-0.5-1.2-0.2
			l-2.8,2.2l-0.8-0.9c-0.4-0.3-1-0.3-1.4,0c0,0,0,0,0,0c-0.4,0.3-0.4,0.9-0.1,1.2L107.4,148.2z"/>
	</g>
</g>
<g>
</g>
<g>
</g>
<g>
</g>
<g>
</g>
<g>
</g>
<g>
</g>
<g>
</g>
<g>
</g>
<g>
</g>
<g>
</g>
<g>
</g>
<g>
</g>
<g>
</g>
<g>
</g>
<g>
</g>
</svg>
