<svg id="Layer_1" data-name="Layer 1" xmlns="http://www.w3.org/2000/svg" viewBox="0 0 243.99 364.68"><title>Logo-White</title><path d="M149.82,131a8.59,8.59,0,0,1,8.59,8.59" transform="translate(-26.55 -19.32)" style="fill:none;stroke:#fff;stroke-linecap:round;stroke-miterlimit:10;stroke-width:5px"/><path d="M88,141v.55a60.73,60.73,0,0,1,121.46-.79c0,.28,0,.53,0,.81s0,.49,0,.82A60.56,60.56,0,0,1,148.86,202H108v61.1h0V283h20V263.1h0V222h20.86a80.7,80.7,0,0,0,80.72-76.5c.07-1.4.11-2.57.11-4,0-.3,0-.49,0-.79-.48-44.33-36.89-80.16-81.34-80.16-44.75,0-81.34,36.24-81.34,81V283H88V141" transform="translate(-26.55 -19.32)" style="fill:#fff"/><path d="M152.53,263.2a122,122,0,0,0-3.86-243.88C81.39,19.32,27,74,26.93,141h0L27,263.07V283H47V140.89h0a101.63,101.63,0,0,1,203.26-.15c0,.13,0,.25,0,.38,0,1.59,0,2.8-.11,4.37C247.69,199,203.89,242,150,242H128v21" transform="translate(-26.55 -19.32)" style="fill:#fff"/><polygon points="101.5 263.68 50.91 364.68 50.87 364.68 0 263.68 101.5 263.68" style="fill:#fff"/><path d="M149.53,181.21A40.57,40.57,0,1,0,108,139.46v.39c0,.26,0,.57,0,.83s0,.57,0,.83V181m41.21-21.19h-.39a20.3,20.3,0,0,1-10.23-2.75l-11.71,11.71-7.52-.12q0-3.69,0-7.38l11.72-11.72a20.31,20.31,0,0,1-2.71-10.17c0-.18,0-.37,0-.55a20.43,20.43,0,1,1,20.81,21Z" transform="translate(-26.55 -19.32)" style="fill:#fff"/></svg>