<svg width="40" height="60" viewBox="0 0 40 60" fill="none" xmlns="http://www.w3.org/2000/svg">
<g clip-path="url(#clip0)">
<path d="M20.209 18.3745C20.5825 18.3745 20.9407 18.5234 21.2048 18.7884C21.4689 19.0535 21.6173 19.4129 21.6173 19.7878" stroke="#424ECC" stroke-miterlimit="10" stroke-linecap="round"/>
<path d="M10.0742 20.0197V20.1102C10.057 17.4602 11.0895 14.912 12.9445 13.0259C14.7995 11.1399 17.325 10.0707 19.9656 10.0535C22.6061 10.0362 25.1453 11.0724 27.0246 12.934C28.9039 14.7957 29.9693 17.3303 29.9865 19.9803C29.9865 20.0263 29.9865 20.0675 29.9865 20.1135C29.9865 20.1596 29.9865 20.1941 29.9865 20.2484C29.9456 22.865 28.8806 25.3603 27.0217 27.1954C25.1628 29.0305 22.6592 30.058 20.0516 30.0559H13.353V40.1086V43.3827H16.6318V40.1086V33.3465H20.0516C23.4449 33.3519 26.7106 32.0487 29.1735 29.7062C31.6365 27.3636 33.1084 24.1609 33.285 20.7601C33.2964 20.5298 33.303 20.3373 33.303 20.102C33.303 20.0526 33.303 20.0214 33.303 19.972C33.2243 12.6785 27.2552 6.78348 19.968 6.78348C12.6317 6.78348 6.63306 12.746 6.63306 20.1102V43.3827H10.0742V20.0197Z" fill="#424ECC"/>
<path d="M20.6533 40.125C25.8593 39.9007 30.7725 37.6463 34.3473 33.8416C37.9221 30.0369 39.8762 24.9822 39.7937 19.7535C39.7113 14.5247 37.5988 9.53467 33.9058 5.84538C30.2128 2.15609 25.2309 0.0588456 20.0205 0C8.99053 0 0.0737699 8.99638 0.062294 20.0197L0.0737698 40.1037V43.3827H3.35259V20.0016C3.34933 15.567 5.10159 11.3126 8.22389 8.17453C11.3462 5.03642 15.5828 3.27162 20.0016 3.26835C24.4205 3.26507 28.6597 5.0236 31.7866 8.15708C34.9135 11.2905 36.672 15.5423 36.6753 19.977C36.6753 19.9984 36.6753 20.0181 36.6753 20.0395C36.6753 20.3011 36.6753 20.5002 36.6572 20.7585C36.2539 29.5624 29.0733 36.6371 20.2385 36.6371H16.6318V40.0921" fill="#424ECC"/>
<path d="M16.64 43.3827L8.34624 60H8.33969L0 43.3827H16.64Z" fill="#424ECC"/>
<path d="M20.1615 26.6354C21.4614 26.604 22.7237 26.1908 23.7921 25.447C24.8605 24.7032 25.6883 23.6614 26.173 22.4505C26.6577 21.2396 26.778 19.9126 26.5192 18.6338C26.2604 17.3549 25.6337 16.1803 24.7167 15.2551C23.7996 14.3299 22.6325 13.6948 21.3596 13.4282C20.0867 13.1617 18.7638 13.2755 17.5547 13.7555C16.3455 14.2356 15.3031 15.0608 14.5563 16.1291C13.8096 17.1974 13.3912 18.462 13.353 19.7664V19.8305C13.353 19.8733 13.353 19.9243 13.353 19.9671C13.353 20.0099 13.353 20.0609 13.353 20.1036V26.6008L20.1615 26.6354ZM20.109 23.1145H20.0451C19.456 23.1153 18.8772 22.9592 18.368 22.6621L16.4482 24.5887L15.2154 24.5689C15.2154 24.1642 15.2154 23.7595 15.2154 23.3547L17.1368 21.4264C16.8447 20.9176 16.6915 20.3404 16.6925 19.7532C16.6925 19.7236 16.6925 19.6923 16.6925 19.6627C16.7109 19.0049 16.9213 18.367 17.2976 17.8281C17.6739 17.2892 18.1996 16.873 18.8094 16.6311C19.4192 16.3892 20.0864 16.3323 20.7281 16.4674C21.3699 16.6025 21.958 16.9237 22.4195 17.3911C22.8811 17.8586 23.1958 18.4517 23.3246 19.0969C23.4533 19.7422 23.3906 20.4112 23.144 21.0209C22.8975 21.6307 22.478 22.1545 21.9376 22.5272C21.3972 22.8999 20.7597 23.1053 20.1041 23.1178L20.109 23.1145Z" fill="#424ECC"/>
</g>
<defs>
<clipPath id="clip0">
<rect width="40" height="60" fill="white"/>
</clipPath>
</defs>
</svg>
