<?xml version="1.0" encoding="utf-8"?>
<!-- Generator: Adobe Illustrator 20.1.0, SVG Export Plug-In . SVG Version: 6.00 Build 0)  -->
<svg version="1.1" id="Prototyping" xmlns="http://www.w3.org/2000/svg" xmlns:xlink="http://www.w3.org/1999/xlink" x="0px"
	 y="0px" viewBox="0 0 192 192" style="enable-background:new 0 0 192 192;" xml:space="preserve">
<style type="text/css">
	.st0{fill:#424ECC;}
</style>
<g>
	<g>
		<path class="st0" d="M150.8,20H41.2c-5.1,0-9.2,4.1-9.2,9.2v133.5c0,5.1,4.1,9.2,9.2,9.2h109.5c5.1,0,9.2-4.1,9.2-9.2V29.2
			C160,24.1,155.9,20,150.8,20z M152,162.8c0,0.7-0.6,1.2-1.2,1.2H41.2c-0.7,0-1.2-0.6-1.2-1.2V29.2c0-0.7,0.6-1.2,1.2-1.2h109.5
			c0.7,0,1.2,0.6,1.2,1.2V162.8z M95.7,51.2c0.1,0.1,0.1,0.2,0.2,0.3c0.2,0.3,0.5,0.4,0.9,0.4c0.2,0,0.5-0.1,0.6-0.2
			s0.3-0.3,0.5-0.5c0.2-0.3,0.2-0.7,0.2-1.3V50c0-0.4-0.1-0.8-0.3-1.2s-0.5-0.6-1.1-0.6c-0.4,0-0.8,0.2-1,0.5s-0.3,0.8-0.3,1.3
			c0,0.2,0,0.5,0.1,0.7S95.6,51.1,95.7,51.2z M139.2,72H53c-2.8,0-5,2.2-5,5v2.1c0,2.8,2.2,5,5,5h86.2c2.8,0,5-2.2,5-5V77
			C144.2,74.2,141.9,72,139.2,72z M57.6,78.6h-2.1v2.1c0,0.3-0.2,0.5-0.5,0.5s-0.5-0.2-0.5-0.5v-2.1h-2.1c-0.3,0-0.5-0.2-0.5-0.5
			s0.2-0.5,0.5-0.5h2.1v-2.1c0-0.3,0.2-0.5,0.5-0.5s0.5,0.2,0.5,0.5v2.1h2.1c0.3,0,0.5,0.2,0.5,0.5S57.9,78.6,57.6,78.6z
			 M121.8,49.2c0.2-0.1,0.2-0.2,0.2-0.4c0-0.2-0.1-0.3-0.2-0.4c-0.1,0-0.1-0.1-0.2-0.1s-0.3,0-0.6,0h-0.3v1h0.5
			C121.5,49.3,121.7,49.2,121.8,49.2z M139.2,92H53c0,0,0,0,0,0h-0.1c-2.8,0-5,2.2-5,5v2.1c0,0.3,0,0.5,0.1,0.8v31c0,2.7,2.2,5,5,5
			h86.2c2.8,0,5-2.2,5-5V97C144.2,94.2,141.9,92,139.2,92z M80,98.1l1-0.7c0.3-0.2,0.7-0.1,0.9,0.2c0.2,0.3,0.1,0.7-0.2,0.9l-1,0.7
			c-0.1,0.1-0.2,0.1-0.4,0.1c0,0-0.1,0-0.1,0c-0.2,0-0.3-0.1-0.4-0.3C79.6,98.7,79.7,98.3,80,98.1z M78.3,96
			c0.1-0.4,0.4-0.6,0.8-0.5c0.4,0.1,0.6,0.4,0.5,0.8l-0.2,1.2c0,0.2-0.1,0.3-0.3,0.4C78.9,98,78.8,98,78.7,98c0,0-0.1,0-0.1,0
			c-0.4-0.1-0.6-0.4-0.5-0.8L78.3,96z M75.4,96.5c0-0.2,0.1-0.3,0.3-0.4c0.1-0.1,0.3-0.1,0.5-0.1c0.2,0,0.3,0.1,0.4,0.3l0.7,1
			c0.1,0.1,0.1,0.3,0.1,0.5c0,0.2-0.1,0.3-0.3,0.4c-0.1,0.1-0.2,0.1-0.4,0.1c-0.2,0-0.4-0.1-0.5-0.3l-0.7-1
			C75.4,96.8,75.4,96.7,75.4,96.5z M76.8,101c0.1,0.1,0.1,0.3,0.1,0.5s-0.1,0.3-0.3,0.4l-1,0.7c-0.1,0.1-0.2,0.1-0.4,0.1
			c-0.2,0-0.4-0.1-0.5-0.3c-0.1-0.1-0.1-0.3-0.1-0.5c0-0.2,0.1-0.3,0.3-0.4l1-0.7c0,0,0,0,0,0C76.2,100.6,76.6,100.7,76.8,101z
			 M74.7,98.5l1.2,0.2c0.2,0,0.3,0.1,0.4,0.3c0.1,0.1,0.1,0.3,0.1,0.5c0,0.2-0.1,0.3-0.3,0.4c-0.1,0.1-0.2,0.1-0.4,0.1
			c0,0-0.1,0-0.1,0l-1.2-0.2c-0.4-0.1-0.6-0.4-0.5-0.8C74,98.7,74.3,98.4,74.7,98.5z M52.4,97.3h5.1c0.3,0,0.5,0.2,0.5,0.5
			s-0.2,0.5-0.5,0.5h-5.1c-0.3,0-0.5-0.2-0.5-0.5S52.1,97.3,52.4,97.3z M142.2,131c0,1.6-1.3,3-3,3H53c-1.7,0-3-1.3-3-3v-27.8
			c0.8,0.6,1.8,1,2.9,1h24.7l-0.7-4.8l0-0.1c0-0.2,0.1-0.5,0.3-0.7l0.3-0.1c0.1,0,0.2-0.1,0.4-0.1c0.1,0,0.3,0,0.4,0.1l0.1,0.1
			l7.3,4.3l0.1,0.1c0.1,0.1,0.1,0.1,0.2,0.2l0,0c0,0,0,0,0,0c0,0,0,0,0,0l0,0c0.1,0.2,0.2,0.4,0.1,0.6c0,0.2-0.1,0.3-0.2,0.4
			c17.6,0,35.2,0,52.8,0c1.4,0,2.6-0.4,3.6-1.2V131z M79.1,107c0.1,0.2,0.3,0.3,0.6,0.3c0.2,0,0.4,0,0.5-0.1
			c0.2-0.1,0.4-0.2,0.5-0.4l0.4-0.6l0.7,1c0.1,0.2,0.3,0.3,0.5,0.3c0,0,0.1,0,0.1,0c0.1,0,0.3,0,0.3-0.1l1-0.6
			c0.2-0.1,0.3-0.3,0.3-0.5c0-0.2,0-0.4-0.1-0.5l-0.7-1l0.7-0.2c0.2-0.1,0.4-0.2,0.6-0.3c0.1-0.1,0.2-0.3,0.3-0.4
			c0.1-0.2,0-0.4-0.1-0.6l0,0c-0.1-0.1-0.2-0.3-0.4-0.3l-5.3-3l-0.1-0.1c-0.1,0-0.2-0.1-0.3-0.1c-0.1,0-0.2,0-0.3,0l-0.2,0.1
			c-0.2,0.1-0.2,0.3-0.2,0.5l0,0.1l0.9,6C78.9,106.7,79,106.9,79.1,107z M53.3,64h85.6c2.8,0,5-2.2,5-5V41c0-2.8-2.2-5-5-5H53.3
			c-2.8,0-5,2.2-5,5v18C48.3,61.8,50.5,64,53.3,64z M126.4,48.1c0-0.4,0-0.6,0-0.8c0-0.2,0.1-0.3,0.1-0.4s0.1-0.2,0.3-0.3
			c0.1-0.1,0.2-0.2,0.3-0.3c0.1-0.1,0.3-0.1,0.4-0.1s0.4,0,0.8,0h2.6c0.4,0,0.6,0,0.8,0.1s0.3,0.1,0.4,0.2c0.1,0.1,0.2,0.2,0.2,0.3
			s0.1,0.3,0.1,0.4c0,0.3-0.1,0.6-0.3,0.8c-0.1,0.1-0.3,0.2-0.4,0.2s-0.4,0.1-0.8,0.1H129v0.6h1.6c0.3,0,0.6,0,0.8,0.1
			c0.2,0,0.3,0.1,0.4,0.2c0.2,0.2,0.3,0.5,0.3,0.8c0,0.3-0.1,0.6-0.3,0.8c-0.1,0.1-0.3,0.2-0.4,0.2S131,51,130.7,51H129v0.9h2
			c0.3,0,0.6,0,0.8,0.1c0.2,0,0.3,0.1,0.4,0.2c0.2,0.2,0.3,0.5,0.3,0.8s-0.1,0.6-0.3,0.8c-0.1,0.1-0.3,0.2-0.5,0.2
			c-0.2,0-0.4,0.1-0.8,0.1h-2.7c-0.2,0-0.4,0-0.6,0c-0.2,0-0.3,0-0.4-0.1c-0.1,0-0.2-0.1-0.3-0.1c-0.1,0-0.2-0.1-0.3-0.2
			c-0.2-0.2-0.3-0.3-0.3-0.5s-0.1-0.5-0.1-1V48.1z M118.1,48.1c0-0.4,0-0.6,0-0.8s0.1-0.3,0.1-0.4c0.1-0.1,0.1-0.2,0.2-0.3
			c0.1-0.1,0.2-0.2,0.3-0.3c0.1-0.1,0.3-0.1,0.5-0.1c0.2,0,0.4,0,0.8,0h1.4c0.6,0,1.1,0,1.5,0.1s0.7,0.3,1,0.5
			c0.2,0.2,0.4,0.5,0.6,0.8c0.1,0.3,0.2,0.7,0.2,1.2c0,0.2,0,0.5-0.1,0.7s-0.2,0.5-0.4,0.8s-0.5,0.5-0.9,0.8
			c-0.2,0.1-0.4,0.2-0.6,0.2s-0.5,0.1-0.7,0.1s-0.4,0-0.7,0h-0.7v0.9c0,0.4,0,0.8-0.1,1s-0.1,0.4-0.3,0.5c-0.3,0.3-0.6,0.4-1,0.4
			c-0.2,0-0.3,0-0.5-0.1c-0.2-0.1-0.3-0.2-0.5-0.3c-0.1-0.1-0.2-0.3-0.3-0.6s-0.1-0.5-0.1-1V48.1z M110.1,46.6
			c0.1-0.2,0.3-0.3,0.5-0.4c0.2-0.1,0.4-0.2,0.6-0.2c0.3,0,0.6,0.1,0.8,0.3c0.2,0.2,0.4,0.5,0.7,1l0.6,1.1l0.6-1.1
			c0.3-0.5,0.6-0.9,0.8-1c0.2-0.2,0.5-0.3,0.8-0.3c0.3,0,0.5,0.1,0.7,0.2c0.2,0.1,0.3,0.3,0.4,0.4s0.1,0.4,0.1,0.5
			c0,0.2,0,0.4-0.1,0.5s-0.2,0.5-0.5,0.9l-1.5,2.3v1.5c0,0.3,0,0.5,0,0.7s-0.1,0.3-0.1,0.5c-0.1,0.1-0.1,0.2-0.2,0.3
			c-0.3,0.3-0.6,0.4-0.9,0.4c-0.4,0-0.7-0.1-1-0.4c-0.1-0.1-0.2-0.3-0.3-0.6s-0.1-0.5-0.1-1v-1.5l-1.5-2.2c-0.2-0.3-0.3-0.5-0.4-0.7
			s-0.1-0.3-0.2-0.4c0-0.1,0-0.2,0-0.3C109.9,47,110,46.8,110.1,46.6z M102.2,46.5c0.1-0.1,0.3-0.2,0.5-0.3c0.2,0,0.5-0.1,0.9-0.1h4
			c0.4,0,0.6,0,0.8,0.1s0.3,0.1,0.5,0.2c0.2,0.2,0.4,0.5,0.4,0.8c0,0.3-0.1,0.6-0.4,0.8c-0.1,0.1-0.3,0.2-0.5,0.3
			c-0.2,0-0.5,0.1-0.8,0.1h-0.7v3.9c0,0.4,0,0.8-0.1,1c0,0.2-0.1,0.4-0.3,0.5c-0.3,0.3-0.6,0.4-1,0.4c-0.2,0-0.3,0-0.5-0.1
			c-0.2-0.1-0.3-0.2-0.5-0.3c-0.1-0.1-0.2-0.3-0.3-0.6c0-0.2-0.1-0.6-0.1-1v-3.9h-0.7c-0.2,0-0.4,0-0.6,0c-0.2,0-0.3-0.1-0.4-0.1
			s-0.2-0.1-0.3-0.2c-0.2-0.2-0.4-0.5-0.4-0.8C101.9,47,102,46.7,102.2,46.5z M93.3,48c0.3-0.6,0.7-1.1,1.3-1.5
			c0.6-0.4,1.3-0.5,2.2-0.5c0.7,0,1.3,0.1,1.8,0.3s0.9,0.5,1.3,0.9s0.6,0.8,0.7,1.3s0.2,1,0.2,1.6c0,0.6-0.1,1.1-0.2,1.6
			c-0.2,0.5-0.4,0.9-0.7,1.3c-0.3,0.4-0.7,0.7-1.3,0.9s-1.1,0.3-1.8,0.3c-0.7,0-1.2-0.1-1.7-0.3s-0.9-0.5-1.3-0.9s-0.6-0.8-0.7-1.3
			s-0.2-1.1-0.2-1.7C92.9,49.3,93,48.6,93.3,48z M84.9,46.5c0.1-0.1,0.3-0.2,0.5-0.3s0.5-0.1,0.9-0.1h4c0.4,0,0.6,0,0.8,0.1
			c0.2,0,0.3,0.1,0.5,0.2c0.2,0.2,0.4,0.5,0.4,0.8c0,0.3-0.1,0.6-0.4,0.8c-0.1,0.1-0.3,0.2-0.5,0.3s-0.5,0.1-0.8,0.1h-0.7v3.9
			c0,0.4,0,0.8-0.1,1s-0.1,0.4-0.3,0.5c-0.3,0.3-0.6,0.4-1,0.4c-0.2,0-0.3,0-0.5-0.1s-0.3-0.2-0.5-0.3c-0.1-0.1-0.2-0.3-0.3-0.6
			s-0.1-0.6-0.1-1v-3.9h-0.7c-0.2,0-0.4,0-0.6,0s-0.3-0.1-0.4-0.1s-0.2-0.1-0.3-0.2c-0.2-0.2-0.4-0.5-0.4-0.8
			C84.6,47,84.7,46.7,84.9,46.5z M76,48c0.3-0.6,0.7-1.1,1.3-1.5s1.3-0.5,2.2-0.5c0.7,0,1.3,0.1,1.8,0.3s0.9,0.5,1.3,0.9
			s0.6,0.8,0.7,1.3s0.2,1,0.2,1.6c0,0.6-0.1,1.1-0.2,1.6s-0.4,0.9-0.7,1.3s-0.7,0.7-1.3,0.9s-1.1,0.3-1.8,0.3
			c-0.7,0-1.2-0.1-1.7-0.3s-0.9-0.5-1.3-0.9s-0.6-0.8-0.7-1.3s-0.2-1.1-0.2-1.7C75.6,49.3,75.7,48.6,76,48z M67.3,48.1
			c0-0.4,0-0.6,0-0.8s0.1-0.3,0.1-0.4s0.1-0.2,0.2-0.3c0.1-0.1,0.2-0.2,0.3-0.3s0.3-0.1,0.5-0.1s0.4,0,0.8,0h1.6c0.4,0,0.7,0,1,0
			s0.6,0.1,0.8,0.2c0.3,0.1,0.6,0.3,0.8,0.5s0.4,0.5,0.5,0.8s0.1,0.6,0.1,0.9c0,0.4-0.1,0.7-0.2,1.1s-0.4,0.6-0.7,0.8
			c-0.1,0.1-0.3,0.2-0.4,0.2c0.2,0.2,0.3,0.4,0.5,0.7c0.2,0.3,0.4,0.6,0.6,1s0.3,0.6,0.3,0.8c0,0.2-0.1,0.4-0.2,0.6
			s-0.3,0.3-0.4,0.4s-0.4,0.1-0.6,0.1c-0.2,0-0.5,0-0.7-0.1s-0.4-0.2-0.5-0.4s-0.3-0.5-0.4-0.8l-0.5-1.1c-0.1-0.3-0.3-0.5-0.4-0.6
			S70.1,51,70.1,51h-0.2v1.3c0,0.4,0,0.8-0.1,1s-0.1,0.4-0.3,0.5c-0.3,0.3-0.6,0.4-1,0.4c-0.4,0-0.7-0.1-1-0.4
			c-0.1-0.1-0.2-0.3-0.3-0.6s-0.1-0.5-0.1-1V48.1z M59,48.1c0-0.4,0-0.6,0-0.8s0.1-0.3,0.1-0.4s0.1-0.2,0.2-0.3
			c0.1-0.1,0.2-0.2,0.3-0.3s0.3-0.1,0.5-0.1s0.4,0,0.8,0h1.4c0.6,0,1.1,0,1.5,0.1s0.7,0.3,1,0.5c0.2,0.2,0.4,0.5,0.6,0.8
			s0.2,0.7,0.2,1.2c0,0.2,0,0.5-0.1,0.7s-0.2,0.5-0.4,0.8s-0.5,0.5-0.9,0.8c-0.2,0.1-0.4,0.2-0.6,0.2s-0.5,0.1-0.7,0.1s-0.4,0-0.7,0
			h-0.7v0.9c0,0.4,0,0.8-0.1,1s-0.1,0.4-0.3,0.5c-0.3,0.3-0.6,0.4-1,0.4c-0.2,0-0.3,0-0.5-0.1s-0.3-0.2-0.5-0.3
			c-0.1-0.1-0.2-0.3-0.3-0.6s-0.1-0.5-0.1-1V48.1z M134,122.5H58c-1.1,0-2,0.9-2,2s0.9,2,2,2h76c1.1,0,2-0.9,2-2
			S135.1,122.5,134,122.5z M139.1,144.3H52.9c-2.8,0-5,2.2-5,5v2.1c0,2.8,2.2,5,5,5h86.2c2.8,0,5-2.2,5-5v-2.1
			C144.1,146.5,141.8,144.3,139.1,144.3z M57.5,150.8h-2.1v2.1c0,0.3-0.2,0.5-0.5,0.5s-0.5-0.2-0.5-0.5v-2.1h-2.1
			c-0.3,0-0.5-0.2-0.5-0.5s0.2-0.5,0.5-0.5h2.1v-2.1c0-0.3,0.2-0.5,0.5-0.5s0.5,0.2,0.5,0.5v2.1h2.1c0.3,0,0.5,0.2,0.5,0.5
			S57.8,150.8,57.5,150.8z M78.4,51.2c0.1,0.1,0.1,0.2,0.2,0.3c0.2,0.3,0.5,0.4,0.9,0.4c0.2,0,0.5-0.1,0.6-0.2s0.3-0.3,0.5-0.5
			c0.2-0.3,0.2-0.7,0.2-1.3V50c0-0.4-0.1-0.8-0.3-1.2s-0.5-0.6-1.1-0.6c-0.4,0-0.8,0.2-1,0.5s-0.3,0.8-0.3,1.3c0,0.2,0,0.5,0.1,0.7
			S78.4,51.1,78.4,51.2z M62.7,49.2c0.2-0.1,0.2-0.2,0.2-0.4c0-0.2-0.1-0.3-0.2-0.4c-0.1,0-0.1-0.1-0.2-0.1s-0.3,0-0.6,0h-0.3v1h0.5
			C62.4,49.3,62.6,49.2,62.7,49.2z M71.2,49c0.1-0.1,0.2-0.2,0.2-0.4c0-0.2-0.1-0.3-0.2-0.3s-0.3-0.1-0.6-0.1h-0.6v0.9h0.6
			C70.8,49.1,71,49.1,71.2,49z M134,112H58c-1.1,0-2,0.9-2,2c0,1.1,0.9,2,2,2h76c1.1,0,2-0.9,2-2C136,112.9,135.1,112,134,112z"/>
	</g>
</g>
<g>
</g>
<g>
</g>
<g>
</g>
<g>
</g>
<g>
</g>
<g>
</g>
<g>
</g>
<g>
</g>
<g>
</g>
<g>
</g>
<g>
</g>
<g>
</g>
<g>
</g>
<g>
</g>
<g>
</g>
</svg>
