<?xml version="1.0" encoding="utf-8"?>
<!-- Generator: Adobe Illustrator 20.1.0, SVG Export Plug-In . SVG Version: 6.00 Build 0)  -->
<svg version="1.1" id="Strategy" xmlns="http://www.w3.org/2000/svg" xmlns:xlink="http://www.w3.org/1999/xlink" x="0px" y="0px"
	 viewBox="0 0 192 192" style="enable-background:new 0 0 192 192;" xml:space="preserve">
<style type="text/css">
	.st0{fill:#424ECC;}
</style>
<g>
	<g>
		<path class="st0" d="M63.6,61.6c-1.7,0-3.1,1.4-3.1,3.1s1.4,3.1,3.1,3.1h36.6c1.7,0,3.1-1.4,3.1-3.1s-1.4-3.1-3.1-3.1H63.6z
			 M63.4,43.1h64.7c1.7,0,3.1-1.4,3.1-3.1s-1.4-3.1-3.1-3.1H63.4c-1.7,0-3.1,1.4-3.1,3.1S61.7,43.1,63.4,43.1z M73.3,146.6l-5.2-2.7
			l-5.7-2.9c-0.2-0.1-0.5-0.2-0.7-0.2c-0.8,0-1.5,0.6-1.5,1.5v11.1c0,0.9,0.7,1.5,1.5,1.5c0.2,0,0.5-0.1,0.7-0.2l5.7-2.9l5.2-2.7
			C74.4,148.8,74.4,147.1,73.3,146.6z M66.2,148.3l-2,1v-2.9l2,1l0.9,0.4L66.2,148.3z M114.9,52.4c0-1.7-1.4-3.1-3.1-3.1H63.6
			c-1.7,0-3.1,1.4-3.1,3.1s1.4,3.1,3.1,3.1h48.2C113.5,55.5,114.9,54.1,114.9,52.4z M96.1,104c4.4,0,8-3.6,8-8c0-4.4-3.6-8-8-8
			c-4.4,0-8,3.6-8,8C88.1,100.3,91.6,104,96.1,104z M96.1,93c1.7,0,3,1.3,3,3c0,1.7-1.3,3-3,3c-1.7,0-3-1.3-3-3
			C93.1,94.3,94.4,93,96.1,93z M130.8,57c-0.5-1-1.8-1.3-2.7-0.7l-6.7,5.4l-2-2.1c-1-0.8-2.4-0.8-3.3,0.1c0,0-0.1,0-0.1,0.1
			c-0.9,0.8-1,2.1-0.3,3l3.8,3.9l0.2,0.2c0.7,0.8,1.9,1,2.7,0.4l8.3-6.9c1-0.9,1.1-2.3,0.2-3.3L130.8,57z M150.8,20H41.2
			c-5.1,0-9.2,4.1-9.2,9.2v133.5c0,5.1,4.1,9.2,9.2,9.2h109.5c5.1,0,9.2-4.1,9.2-9.2V29.3C160,24.1,155.9,20,150.8,20z M150.8,164
			H41.2c-0.7,0-1.2-0.6-1.2-1.2V29.3c0-0.7,0.6-1.2,1.2-1.2h109.5c0.7,0,1.2,0.6,1.2,1.2l0.1,133.5l0,0.1
			C152,163.5,151.4,164,150.8,164z M122.9,128c-2.5-4.2-6.9-7-11.9-7H81.2c-6.5,0-11.7-5.4-11.7-12c0-5.6,3.7-10.3,8.8-11.6
			c0.7,9.2,8.5,16.5,17.8,16.5c9.9,0,17.9-8,17.9-17.9C114,86,105.9,78,96.1,78c-9.8,0-17.9,8-17.9,17.9v-0.6
			c-6.1,1.4-10.7,7-10.7,13.7c0,7.7,6.2,14,13.7,14H111c4,0,7.6,2.1,9.7,5.3c-3.3,1-5.8,4-5.8,7.7c0,3.2,1.9,6,4.6,7.2
			c-2.1,2.3-5.2,3.8-8.5,3.8H75.6v2H111c4.3,0,8.1-2,10.6-5.2c0.4,0.1,0.9,0.1,1.3,0.1c4.4,0,8-3.6,8-8
			C130.9,131.5,127.3,128,122.9,128z M96.1,83c7.1,0,12.9,5.8,12.9,12.9c0,7.1-5.8,12.9-12.9,12.9c-7.1,0-13-5.8-13-12.9
			C83.1,88.8,88.9,83,96.1,83z M122.9,138.9c-1.7,0-3-1.3-3-3c0-1.7,1.3-3,3-3c1.7,0,3,1.3,3,3C125.9,137.6,124.6,138.9,122.9,138.9
			z M91.4,140.8c0.6,0.6,1.5,0.6,2.1,0l2.5-2.5l2.5,2.5c0.6,0.6,1.5,0.6,2.1,0c0.6-0.6,0.6-1.5,0-2.1l-2.5-2.6l2.5-2.5
			c0.6-0.6,0.6-1.5,0-2.1c-0.6-0.6-1.5-0.6-2.1,0l-2.5,2.5l-2.5-2.5c-0.6-0.6-1.5-0.6-2.1,0c-0.6,0.6-0.6,1.5,0,2.1l2.5,2.6
			l-2.5,2.6C90.8,139.1,90.8,140.1,91.4,140.8z"/>
	</g>
</g>
</svg>
