<?xml version="1.0" encoding="utf-8"?>
<!-- Generator: Adobe Illustrator 20.1.0, SVG Export Plug-In . SVG Version: 6.00 Build 0)  -->
<svg version="1.1" id="UI" xmlns="http://www.w3.org/2000/svg" xmlns:xlink="http://www.w3.org/1999/xlink" x="0px" y="0px"
	 viewBox="0 0 192 192" style="enable-background:new 0 0 192 192;" xml:space="preserve">
<style type="text/css">
	.st0{fill:#424ECC;}
</style>
<g>
	<g>
		<path class="st0" d="M53.5,138h14v-8.2h-14V138z M59.4,83.1c0.5,0,1.1-0.2,1.4-0.6c0.2-0.2,0.4-0.5,0.5-0.8h3.6
			c-1,0.6-2,1.4-2.8,2.3c-1.5,1.7-2.4,3.7-2.8,5.9h-0.8c0,0,0,0,0,0c-0.3,0-0.6,0.3-0.6,0.6v2.8c0,0,0,0,0,0c0,0.3,0.3,0.6,0.6,0.6
			h2.7c0.3,0,0.6-0.3,0.6-0.6v-2.8c0-0.3-0.3-0.6-0.6-0.6h-0.6c0.4-1.9,1.2-3.6,2.5-5.1c1.2-1.4,2.9-2.5,4.7-3V83c0,0,0,0,0,0
			c0,0.3,0.2,0.5,0.5,0.5H72c0,0,0,0,0,0c0.3,0,0.5-0.2,0.5-0.5v-1.1c1.8,0.5,3.4,1.5,4.6,2.8c1.3,1.5,2.2,3.3,2.6,5.2h-0.6
			c-0.3,0-0.6,0.3-0.6,0.6v2.8c0,0.3,0.3,0.6,0.6,0.6h2.8c0.3,0,0.6-0.3,0.6-0.6v-2.8c0,0,0,0,0,0c0-0.3-0.3-0.6-0.6-0.6H81
			c-0.4-2.3-1.4-4.4-2.9-6.1c-0.8-0.9-1.7-1.6-2.7-2.2h3.1c0.1,0.3,0.3,0.6,0.5,0.8c0,0,0,0,0,0c0.8,0.8,2.1,0.8,2.9,0c0,0,0,0,0,0
			c0.8-0.8,0.8-2.1,0-2.9l0,0c-0.8-0.8-2.1-0.8-2.9,0c-0.2,0.2-0.4,0.5-0.5,0.8h-6v-1.3c0-0.3-0.2-0.5-0.5-0.5h-3.8
			c-0.3,0-0.5,0.2-0.5,0.5v1.3h-6.4c-0.1-0.3-0.3-0.6-0.5-0.8l0,0c-0.8-0.8-2.1-0.8-2.9,0l0,0c-0.8,0.8-0.8,2.1,0,2.9
			C58.3,82.9,58.8,83.1,59.4,83.1z M52.9,110.6h34c2.8,0,5-2.2,5-5V76.9c0-2.8-2.2-5-5-5h-34c-2.8,0-5,2.2-5,5v28.7
			C47.9,108.4,50.2,110.6,52.9,110.6z M50.9,76.9c0-1.1,0.9-2,2-2h34c1.1,0,2,0.9,2,2v28.7c0,1.1-0.9,2-2,2h-34c-1.1,0-2-0.9-2-2
			V76.9z M53.1,64h85.7c2.8,0,5-2.2,5-5V41c0-2.8-2.2-5-5-5H53.1c-2.8,0-5,2.2-5,5v18C48.1,61.8,50.4,64,53.1,64z M101.2,46.5
			c0-0.7,0-1.2,0.1-1.6c0.1-0.4,0.2-0.6,0.5-0.9c0.1-0.1,0.2-0.2,0.4-0.3c0.2-0.1,0.3-0.2,0.5-0.2s0.4-0.1,0.6-0.1
			c0.3,0,0.6,0.1,0.9,0.2c0.3,0.1,0.5,0.3,0.7,0.5c0.2,0.2,0.4,0.5,0.5,0.9c0.1,0.4,0.1,0.9,0.1,1.6v7c0,0.7,0,1.2-0.1,1.5
			c-0.1,0.3-0.2,0.6-0.5,0.9c-0.4,0.4-0.9,0.7-1.5,0.7c-0.6,0-1.1-0.2-1.5-0.6c-0.2-0.2-0.4-0.5-0.5-0.9s-0.1-0.9-0.1-1.6V46.5z
			 M86.6,46.5c0-0.7,0-1.2,0.1-1.6c0.1-0.4,0.2-0.6,0.5-0.9c0.1-0.1,0.2-0.2,0.4-0.3c0.2-0.1,0.3-0.2,0.5-0.2
			c0.2-0.1,0.4-0.1,0.6-0.1c0.3,0,0.6,0.1,0.9,0.2c0.3,0.1,0.5,0.3,0.7,0.5c0.2,0.2,0.4,0.5,0.5,0.9s0.1,0.9,0.1,1.6v4.4
			c0,1.4,0.5,2.1,1.5,2.1c0.6,0,0.9-0.2,1.1-0.6c0.2-0.4,0.3-0.9,0.3-1.4v-4.4c0-0.7,0-1.2,0.1-1.6c0.1-0.4,0.2-0.6,0.4-0.9
			c0.4-0.4,0.9-0.6,1.5-0.6c0.3,0,0.6,0.1,0.8,0.2c0.3,0.1,0.5,0.3,0.7,0.5c0.2,0.2,0.4,0.5,0.5,0.9c0.1,0.4,0.1,0.9,0.1,1.5v4.2
			c0,0.8-0.1,1.5-0.2,2.1c-0.1,0.6-0.3,1.1-0.6,1.6c-0.3,0.5-0.8,1-1.3,1.3c-0.5,0.3-1,0.6-1.6,0.7s-1.2,0.2-1.8,0.2
			c-0.7,0-1.4-0.1-2-0.2s-1.2-0.3-1.8-0.7c-0.6-0.3-1-0.8-1.4-1.5c-0.5-0.8-0.7-2-0.7-3.5V46.5z M66.6,103.8h7v-1.4h-7V103.8z
			 M70.4,86.7l0,8.8c0.3,0.1,0.5,0.3,0.6,0.6c0.2,0.5-0.1,1-0.6,1.2c-0.5,0.2-1-0.1-1.2-0.6c-0.2-0.5,0.1-1,0.6-1.2l0.1-8.8l-1-0.1
			c-1,3.2-2.7,7-4.4,10.1l2,4.9l7.2,0.1l2-5v0c-1.7-3-3.4-6.7-4.2-10L70.4,86.7z M87.9,152c-1.1,0-1.9,0.9-1.9,1.9
			c0,1.1,0.9,1.9,1.9,1.9c1.1,0,1.9-0.9,1.9-1.9C89.9,152.9,89,152,87.9,152z M130,79.1c-0.1,2.2-3,3.5-2,5.8
			c0.3,0.6,0.8,1.1,1.5,1.4c0.3,0.1,0.5,0.1,0.8,0c0.1,0,0.2-0.1,0.4-0.1c1.5-0.7,1.7-2.5,1.2-3.9C131.5,81,130.6,79.9,130,79.1z
			 M120,88.6c-0.4-0.9-1.4-1.4-2.3-1c-0.9,0.4-1.4,1.4-1,2.3c0.4,0.9,1.4,1.4,2.3,1S120.3,89.6,120,88.6z M128.3,91.4l1,10.7
			c0,0.7,0.2,1.1,1,1.2c0.2,0,0.5-0.1,0.7-0.3c0.2-0.2,0.3-0.4,0.3-0.7l0.7-11C130.7,91.6,129.5,91.6,128.3,91.4z M117.9,96.3
			c0.9-0.4,1.4-1.4,1-2.3c-0.4-0.9-1.4-1.4-2.3-1c-0.9,0.4-1.4,1.4-1,2.3c0,0,0,0,0,0v0C115.9,96.2,117,96.6,117.9,96.3z M87,118
			H53.3c-2.8,0-5,2.6-5,5.7v18.6c0,3.2,2.2,5.7,5,5.7H87c2.8,0,5-2.6,5-5.7v-18.6C92,120.6,89.8,118,87,118z M52.5,124.2
			c0-0.6,0.4-1.1,1-1.1h33.2c0.6,0,1,0.5,1,1.1v0.1c0,0.6-0.4,1.1-1,1.1H53.5c-0.6,0-1-0.5-1-1.1V124.2z M68.5,129.8v8.2
			c0,0.6-0.4,1.1-1,1.1h-14c-0.6,0-1-0.5-1-1.1v-8.2c0-0.6,0.4-1.1,1-1.1h14C68.1,128.7,68.5,129.2,68.5,129.8z M87.3,143.6H52.9
			c-0.3,0-0.5-0.3-0.5-0.6s0.2-0.6,0.5-0.6h34.3c0.3,0,0.5,0.3,0.5,0.6S87.6,143.6,87.3,143.6z M87.3,139.1H72.2
			c-0.3,0-0.5-0.3-0.5-0.6s0.2-0.6,0.5-0.6h15.1c0.3,0,0.5,0.3,0.5,0.6S87.6,139.1,87.3,139.1z M87.3,134.5H72.2
			c-0.3,0-0.5-0.3-0.5-0.6c0-0.3,0.2-0.6,0.5-0.6h15.1c0.3,0,0.5,0.3,0.5,0.6C87.8,134.3,87.6,134.5,87.3,134.5z M87.3,130.1H72.2
			c-0.3,0-0.5-0.3-0.5-0.6s0.2-0.6,0.5-0.6h15.1c0.3,0,0.5,0.3,0.5,0.6S87.6,130.1,87.3,130.1z M121.3,96.7
			C121.3,96.7,121.3,96.7,121.3,96.7c-0.9,0.4-1.4,1.4-1,2.3c0.4,0.9,1.4,1.4,2.3,1c0.9-0.4,1.4-1.4,1-2.3S122.3,96.3,121.3,96.7z
			 M130.9,87.2c-0.5,0.2-1.3,0.3-1.8,0l-0.8,3.5c1.3,0.3,2.5,0.3,3.7,0C131.6,89,131.2,89,130.9,87.2L130.9,87.2z M139.2,71.9h-34
			c-2.8,0-5,2.2-5,5v28.7c0,2.8,2.2,5,5,5h34c2.8,0,5-2.2,5-5V76.9C144.2,74.1,141.9,71.9,139.2,71.9z M141.2,105.6c0,1.1-0.9,2-2,2
			h-34c-1.1,0-2-0.9-2-2V76.9c0-1.1,0.9-2,2-2h34c1.1,0,2,0.9,2,2V105.6z M104.1,152c-1.1,0-1.9,0.9-1.9,1.9c0,1.1,0.9,1.9,1.9,1.9
			c1.1,0,1.9-0.9,1.9-1.9C106,152.9,105.1,152,104.1,152z M104.1,154.9c-0.5,0-0.9-0.4-0.9-0.9c0-0.5,0.4-0.9,0.9-0.9
			c0.5,0,0.9,0.4,0.9,0.9C105,154.4,104.6,154.9,104.1,154.9z M105.4,138h14v-8.2h-14V138z M96.1,152c-1.1,0-1.9,0.9-1.9,1.9
			c0,1.1,0.9,1.9,1.9,1.9c1.1,0,1.9-0.9,1.9-1.9C98.1,152.9,97.2,152,96.1,152z M96.1,154.9c-0.5,0-0.9-0.4-0.9-0.9
			c0-0.5,0.4-0.9,0.9-0.9c0.5,0,0.9,0.4,0.9,0.9C97.1,154.4,96.6,154.9,96.1,154.9z M124.4,94.2c0,0.3,0,0.6,0.1,0.9
			c0.4,1,1.4,1.5,2.4,1.3l-0.4-4.1C125.5,92.2,124.5,93,124.4,94.2z M125.4,101c-1.5,0.6-3.1,0.8-4.7,0.6h0c-1.7-0.2-3.2-1-4.4-2.3
			c-1.3-1.3-2.2-3-2.6-4.8c-0.5-2.2-0.1-4.5,1-6.5c1.1-2,2.9-3.5,5-4.3c0.6-0.2,1.2-0.3,1.9-0.3c0.4,0,0.7,0.2,1,0.5
			c0.2,0.6-0.2,1.1-0.6,1.6c-0.7,0.8-1.3,1.5-0.7,2.7c0.3,0.5,0.8,0.8,1.4,1c0.7,0.2,1.4,0.2,2.1,0c0.6-0.1,1.1-0.2,1.6-0.3
			c0.2,0,0.3-0.1,0.5-0.1l0.3-1.3c-0.3,0.1-0.7,0.1-1.1,0.2c-0.5,0.1-1,0.2-1.5,0.3c-0.5,0.1-1.1,0.1-1.6,0c-0.3,0-0.5-0.2-0.6-0.4
			c-0.2-0.4,0.1-0.9,0.5-1.3c0.7-0.8,1.4-1.6,0.8-2.9c0,0,0-0.1-0.1-0.1c-0.4-0.6-1.1-1-1.8-1.1c-0.8-0.1-1.7,0-2.5,0.3
			c-2.4,0.9-4.4,2.6-5.7,4.8c-1.3,2.2-1.7,4.8-1.1,7.3c0.4,2,1.4,3.9,2.9,5.4c1.4,1.4,3.2,2.3,5.1,2.6c1.8,0.2,3.7,0,5.4-0.7
			c0.5-0.2,1.1-0.5,1.6-0.8l-0.1-1.4C126.7,100.3,126.1,100.7,125.4,101z M138.9,118h-33.8c-2.8,0-5,2.6-5,5.7v18.6
			c0,3.2,2.2,5.7,5,5.7h33.8c2.8,0,5-2.6,5-5.7v-18.6C143.9,120.6,141.6,118,138.9,118z M104.4,124.2c0-0.6,0.4-1.1,1-1.1h33.2
			c0.6,0,1,0.5,1,1.1v0.1c0,0.6-0.4,1.1-1,1.1h-33.2c-0.6,0-1-0.5-1-1.1V124.2z M120.4,129.8v8.2c0,0.6-0.4,1.1-1,1.1h-14
			c-0.6,0-1-0.5-1-1.1v-8.2c0-0.6,0.4-1.1,1-1.1h14C120,128.7,120.4,129.2,120.4,129.8z M139.1,143.6h-34.3c-0.3,0-0.5-0.3-0.5-0.6
			s0.2-0.6,0.5-0.6h34.3c0.3,0,0.5,0.3,0.5,0.6S139.4,143.6,139.1,143.6z M139.1,139.1h-15.1c-0.3,0-0.5-0.3-0.5-0.6
			s0.2-0.6,0.5-0.6h15.1c0.3,0,0.5,0.3,0.5,0.6S139.4,139.1,139.1,139.1z M139.1,134.5h-15.1c-0.3,0-0.5-0.3-0.5-0.6
			c0-0.3,0.2-0.6,0.5-0.6h15.1c0.3,0,0.5,0.3,0.5,0.6C139.6,134.3,139.4,134.5,139.1,134.5z M139.1,130.1h-15.1
			c-0.3,0-0.5-0.3-0.5-0.6s0.2-0.6,0.5-0.6h15.1c0.3,0,0.5,0.3,0.5,0.6S139.4,130.1,139.1,130.1z M150.8,20H41.2
			c-5.1,0-9.2,4.1-9.2,9.2v133.5c0,5.1,4.1,9.2,9.2,9.2h109.5c5.1,0,9.2-4.1,9.2-9.2V29.2C160,24.1,155.9,20,150.8,20z M152,162.8
			c0,0.7-0.6,1.2-1.2,1.2H41.2c-0.7,0-1.2-0.6-1.2-1.2V29.2c0-0.7,0.6-1.2,1.2-1.2h109.5c0.7,0,1.2,0.6,1.2,1.2V162.8z"/>
	</g>
</g>
<g>
</g>
<g>
</g>
<g>
</g>
<g>
</g>
<g>
</g>
<g>
</g>
<g>
</g>
<g>
</g>
<g>
</g>
<g>
</g>
<g>
</g>
<g>
</g>
<g>
</g>
<g>
</g>
<g>
</g>
</svg>
