<?xml version="1.0" encoding="utf-8"?>
<!-- Generator: Adobe Illustrator 20.1.0, SVG Export Plug-In . SVG Version: 6.00 Build 0)  -->
<svg version="1.1" id="User-Research" xmlns="http://www.w3.org/2000/svg" xmlns:xlink="http://www.w3.org/1999/xlink" x="0px"
	 y="0px" viewBox="0 0 192 192" style="enable-background:new 0 0 192 192;" xml:space="preserve">
<style type="text/css">
	.st0{fill:#424ECC;}
</style>
<g>
	<g>
		<path class="st0" d="M152.8,22.5H43.2c-5.1,0-9.2,4.1-9.2,9.2v133.5c0,5.1,4.1,9.2,9.2,9.2h109.5c5.1,0,9.2-4.1,9.2-9.2V31.7
			C162,26.6,157.9,22.5,152.8,22.5z M154,165.3c0,0.7-0.6,1.2-1.2,1.2H43.2c-0.7,0-1.2-0.6-1.2-1.2V31.7c0-0.7,0.6-1.2,1.2-1.2
			h109.5c0.7,0,1.2,0.6,1.2,1.2V165.3z M64.8,137H53.4c-1.2,0-2.2,1-2.2,2.2v11.4c0,1.2,1,2.2,2.2,2.2h11.4c1.2,0,2.2-1,2.2-2.2
			v-11.4C66.9,137.9,66,137,64.8,137z M62.6,144.2l-3.9,3.3c-0.4,0.3-1,0.2-1.3-0.2l-0.1-0.1l-1.8-1.9c-0.4-0.4-0.3-1.1,0.1-1.4
			c0,0,0,0,0,0c0.4-0.4,1.1-0.4,1.6-0.1l1,1l3.2-2.5c0.5-0.3,1.1-0.2,1.4,0.3c0,0,0,0,0,0.1C63.1,143,63,143.7,62.6,144.2z
			 M54.5,66.6h22.8c2.5,0,4.5-2,4.5-4.5V43.1c0-2.5-2-4.5-4.5-4.5H54.5c-2.5,0-4.5,2-4.5,4.5v19.1C50,64.6,52,66.6,54.5,66.6z
			 M65.9,45.4c4,0,7.2,3.2,7.2,7.2c0,4-3.2,7.2-7.2,7.2c-4,0-7.2-3.2-7.2-7.2C58.7,48.6,61.9,45.4,65.9,45.4z M141.4,38.8h-22.8
			c-2.5,0-4.5,2-4.5,4.5v19.1c0,2.5,2,4.5,4.5,4.5h22.8c2.5,0,4.5-2,4.5-4.5V43.3C145.9,40.8,143.9,38.8,141.4,38.8z M139.3,52.7
			c0,1.3-1,2.3-2.3,2.3h-3.8l-0.5,0.9l-2.1,3.7c-0.2,0.4-0.8,0.4-1,0l-2.1-3.7l-0.5-0.9h-3.8c-1.3,0-2.3-1-2.3-2.3V48
			c0-1.3,1-2.3,2.3-2.3H137c1.3,0,2.3,1,2.3,2.3V52.7z M66.4,50.4c0.3,0,0.5-0.1,0.7-0.3c0.2-0.2,0.3-0.4,0.2-0.7
			c0-0.3-0.1-0.5-0.3-0.7c-0.2-0.2-0.4-0.3-0.7-0.2c-0.3,0-0.5,0.1-0.6,0.3c-0.2,0.2-0.3,0.4-0.2,0.7c0,0.3,0.1,0.5,0.3,0.6
			C65.9,50.3,66.2,50.4,66.4,50.4z M64.6,51.8c0.2-0.3,0.3-0.4,0.5-0.4c0.1,0,0.1,0,0.2,0c0,0,0.1,0.1,0.1,0.2c0,0,0,0.1,0,0.1
			c0,0,0,0.1,0,0.2L64.5,54c0,0.1-0.1,0.2-0.1,0.4c0,0.1,0,0.2,0,0.4c0,0.3,0.1,0.6,0.3,0.8c0.2,0.2,0.5,0.3,0.9,0.3
			c0.4,0,0.8-0.2,1.1-0.4c0.3-0.3,0.6-0.7,0.8-1.4l-0.2-0.1c-0.2,0.5-0.4,0.8-0.5,1c-0.1,0.2-0.3,0.3-0.4,0.3c-0.1,0-0.1,0-0.1,0
			s0-0.1,0-0.1c0,0,0-0.1,0-0.1c0,0,0-0.1,0.1-0.3l0.6-2.1c0-0.1,0.1-0.3,0.1-0.4c0-0.1,0-0.2,0-0.3c0-0.3-0.1-0.6-0.4-0.8
			c-0.2-0.2-0.5-0.3-0.9-0.3c-0.5,0-0.8,0.2-1.1,0.5c-0.3,0.3-0.5,0.8-0.8,1.6l0.2,0C64.2,52.5,64.4,52.1,64.6,51.8z M98,94.4
			c3.2,0,5.8-2.6,5.8-5.8s-2.6-5.8-5.8-5.8s-5.8,2.6-5.8,5.8S94.8,94.4,98,94.4z M130,49.2c-0.7,0-1.2,0.5-1.2,1.2
			c0,0.6,0.5,1.2,1.2,1.2c0.6,0,1.2-0.5,1.2-1.2C131.2,49.7,130.7,49.2,130,49.2z M134.7,49.2c-0.6,0-1.2,0.5-1.2,1.2
			c0,0.6,0.5,1.2,1.2,1.2s1.2-0.5,1.2-1.2C135.8,49.7,135.3,49.2,134.7,49.2z M125.4,49.2c-0.6,0-1.2,0.5-1.2,1.2
			c0,0.6,0.5,1.2,1.2,1.2s1.2-0.5,1.2-1.2C126.5,49.7,126,49.2,125.4,49.2z M142.6,146.8l-67.4,0c-1.6,0-3,1.4-3,3s1.4,3,3,3l67.4,0
			c1.7,0,3-1.4,3-3C145.6,148.1,144.2,146.8,142.6,146.8z M98,126.5c6.3,0,12.2-2.1,16.9-5.7l5.4,5.4c0.7,0.7,1.6,1,2.5,1
			s1.8-0.3,2.5-1c1.4-1.4,1.4-3.6,0-4.9l-5.3-5.3c3.8-4.8,6.1-10.9,6.1-17.5c0-15.5-12.5-28-28-28S70,83,70,98.5
			S82.5,126.5,98,126.5z M98,77.5c11.6,0,21,9.4,21,21s-9.4,21-21,21s-21-9.4-21-21S86.4,77.5,98,77.5z M75.2,142.7l67.2,0
			c1.6,0,3-1.4,3-3s-1.4-3-3-3l-67.2,0c-1.6,0-3,1.4-3,3v0C72.2,141.3,73.5,142.7,75.2,142.7z M98,114.3c3.9,0,7.1-1.3,10-3.6
			c0-0.2,0-0.4,0-0.6v-5.3c0-3.5-2.9-6.4-6.4-6.4h-7.3c-3.5,0-6.4,2.9-6.4,6.4v5.3c0,0.2,0,0.4,0,0.6
			C90.6,112.8,94.2,114.3,98,114.3z"/>
	</g>
</g>
</svg>
