<?xml version="1.0" encoding="utf-8"?>
<!-- Generator: Adobe Illustrator 20.1.0, SVG Export Plug-In . SVG Version: 6.00 Build 0)  -->
<svg version="1.1" id="Wireframes" xmlns="http://www.w3.org/2000/svg" xmlns:xlink="http://www.w3.org/1999/xlink" x="0px" y="0px"
	 viewBox="0 0 192 192" style="enable-background:new 0 0 192 192;" xml:space="preserve">
<style type="text/css">
	.st0{fill:#424ECC;}
</style>
<g>
	<g>
		<path class="st0" d="M112,72.5h24c0.3,0,0.5-0.2,0.5-0.5s-0.2-0.5-0.5-0.5h-24c-0.3,0-0.5,0.2-0.5,0.5S111.7,72.5,112,72.5z
			 M109,84h30c2.8,0,5-2.2,5-5V68.5c0-2.8-2.2-5-5-5h-30c-2.8,0-5,2.2-5,5V79C104,81.8,106.2,84,109,84z M107,68.5c0-1.1,0.9-2,2-2
			h30c1.1,0,2,0.9,2,2V79c0,1.1-0.9,2-2,2h-30c-1.1,0-2-0.9-2-2V68.5z M109,111.5h30c2.8,0,5-2.2,5-5V96c0-2.8-2.2-5-5-5h-30
			c-2.8,0-5,2.2-5,5v10.5C104,109.3,106.2,111.5,109,111.5z M107,96c0-1.1,0.9-2,2-2h30c1.1,0,2,0.9,2,2v10.5c0,1.1-0.9,2-2,2h-30
			c-1.1,0-2-0.9-2-2V96z M112,104.4h24c0.3,0,0.5-0.2,0.5-0.5s-0.2-0.5-0.5-0.5h-24c-0.3,0-0.5,0.2-0.5,0.5S111.7,104.4,112,104.4z
			 M140.4,119.8h-88c-2.2,0-4,1.8-4,4c0,2.2,1.8,4,4,4h88c2.2,0,4-1.8,4-4C144.4,121.5,142.6,119.8,140.4,119.8z M112,76.5h24
			c0.3,0,0.5-0.2,0.5-0.5s-0.2-0.5-0.5-0.5h-24c-0.3,0-0.5,0.2-0.5,0.5S111.7,76.5,112,76.5z M69.9,87.5L55.4,102
			c-0.6,0.6-0.6,1.5,0,2.1c0.3,0.3,0.7,0.4,1.1,0.4c0.4,0,0.8-0.1,1.1-0.4L72,89.6l14.5,14.5c0.3,0.3,0.7,0.4,1.1,0.4
			c0.4,0,0.8-0.1,1.1-0.4c0.6-0.6,0.6-1.5,0-2.1L74.1,87.5L88.6,73c0.6-0.6,0.6-1.5,0-2.1c-0.6-0.6-1.5-0.6-2.1,0L72,85.4L57.5,70.9
			c-0.6-0.6-1.5-0.6-2.1,0c-0.6,0.6-0.6,1.5,0,2.1L69.9,87.5z M112,100.4h24c0.3,0,0.5-0.2,0.5-0.5s-0.2-0.5-0.5-0.5h-24
			c-0.3,0-0.5,0.2-0.5,0.5S111.7,100.4,112,100.4z M140,36c-2.2,0-4,1.8-4,4c0,2.2,1.8,4,4,4c2.2,0,4-1.8,4-4
			C144,37.8,142.2,36,140,36z M128,36c-2.2,0-4,1.8-4,4c0,2.2,1.8,4,4,4c2.2,0,4-1.8,4-4C132,37.8,130.2,36,128,36z M53,111.5h38
			c2.8,0,5-2.2,5-5v-38c0-2.8-2.2-5-5-5H53c-2.8,0-5,2.2-5,5v38C48,109.3,50.2,111.5,53,111.5z M51,68.5c0-1.1,0.9-2,2-2h38
			c1.1,0,2,0.9,2,2v38c0,1.1-0.9,2-2,2H53c-1.1,0-2-0.9-2-2V68.5z M116,36c-2.2,0-4,1.8-4,4c0,2.2,1.8,4,4,4c2.2,0,4-1.8,4-4
			C120,37.8,118.2,36,116,36z M150.8,20H41.2c-5.1,0-9.2,4.1-9.2,9.2v133.5c0,5.1,4.1,9.2,9.2,9.2h109.5c5.1,0,9.2-4.1,9.2-9.2V29.2
			C160,24.1,155.9,20,150.8,20z M152,162.8c0,0.7-0.5,1.2-1.2,1.2H41.2c-0.7,0-1.2-0.5-1.2-1.2V55.5h112V162.8z M152,52H40V29.2
			c0-0.7,0.5-1.2,1.2-1.2h109.5c0.7,0,1.2,0.5,1.2,1.2V52z M56.3,148.5h79.5c0.3,0,0.5-0.2,0.5-0.5s-0.2-0.5-0.5-0.5H56.3
			c-0.3,0-0.5,0.2-0.5,0.5S56,148.5,56.3,148.5z M56.3,144.5h79.5c0.3,0,0.5-0.2,0.5-0.5s-0.2-0.5-0.5-0.5H56.3
			c-0.3,0-0.5,0.2-0.5,0.5S56,144.5,56.3,144.5z M53,156h86c2.8,0,5-2.2,5-5v-10c0-2.8-2.2-5-5-5H53c-2.8,0-5,2.2-5,5v10
			C48,153.8,50.2,156,53,156z M51,141c0-1.1,0.9-2,2-2h86c1.1,0,2,0.9,2,2v10c0,1.1-0.9,2-2,2H53c-1.1,0-2-0.9-2-2V141z M100,36H52
			c-2.2,0-4,1.8-4,4c0,2.2,1.8,4,4,4h48c2.2,0,4-1.8,4-4C104,37.8,102.2,36,100,36z"/>
	</g>
</g>
<g>
</g>
<g>
</g>
<g>
</g>
<g>
</g>
<g>
</g>
<g>
</g>
<g>
</g>
<g>
</g>
<g>
</g>
<g>
</g>
<g>
</g>
<g>
</g>
<g>
</g>
<g>
</g>
<g>
</g>
</svg>
